<?xml version="1.0" encoding="UTF-8"?>
<svg width="174px" height="40px" viewBox="0 0 174 40" version="1.1" xmlns="http://www.w3.org/2000/svg" xmlns:xlink="http://www.w3.org/1999/xlink">
    <!-- Generator: Sketch 51.2 (57519) - http://www.bohemiancoding.com/sketch -->
    <title>fathom-logo-white</title>
    <desc>Created with Sketch.</desc>
    <defs></defs>
    <g id="fathom-logo-white" stroke="none" stroke-width="1" fill="none" fill-rule="evenodd">
        <g id="Logo/Standard/Light">
            <g id="fathom_logo-lockup_full-color_RGB-Copy" transform="translate(0.887755, 0.888889)">
                <g id="Group" transform="translate(51.933673, 4.888889)" fill="#FFFFFF" fill-rule="nonzero">
                    <path d="M79.7647959,9.15555556 C74.4826531,9.15555556 70.3102041,13.5555556 70.3102041,18.9333333 C70.3102041,24.3111111 74.4826531,28.7111111 79.7647959,28.7111111 C85.0469388,28.7111111 89.2193878,24.3111111 89.2193878,18.9333333 C89.2193878,13.5555556 85.0469388,9.15555556 79.7647959,9.15555556 Z M79.7647959,23.9111111 C77.2346939,23.9111111 75.0153061,21.6888889 75.0153061,18.9777778 C75.0153061,16.2666667 77.1903061,14.0444444 79.7647959,14.0444444 C82.3392857,14.0444444 84.5142857,16.2666667 84.5142857,18.9777778 C84.5142857,21.6888889 82.294898,23.9111111 79.7647959,23.9111111 Z" id="Shape"></path>
                    <path d="M31.5596939,9.46666667 L31.1602041,11.6 C31.1602041,11.6 29.7397959,9.15555556 25.922449,9.15555556 C21.0397959,9.15555556 16.9561224,12.6222222 16.9561224,18.8 C16.9561224,24.7555556 21.3505102,28.7555556 25.5229592,28.7555556 C29.4290816,28.7555556 31.1602041,25.4666667 31.1602041,25.4666667 L31.5596939,28.2666667 L35.8653061,28.2666667 L35.8653061,9.46666667 L31.5596939,9.46666667 Z M26.4107143,23.9111111 C23.7918367,23.9111111 21.6612245,21.6888889 21.6612245,18.9777778 C21.6612245,16.2666667 23.7918367,14.0444444 26.4107143,14.0444444 C29.0295918,14.0444444 31.1602041,16.2666667 31.1602041,18.9777778 C31.1602041,21.6888889 29.0295918,23.9111111 26.4107143,23.9111111 Z" id="Shape"></path>
                    <path d="M43.855102,22.2222222 L43.855102,14.2222222 L48.6045918,14.2222222 L48.6045918,9.46666667 L43.855102,9.46666667 L43.855102,4.75555556 L39.1056122,6.04444444 C39.1056122,6.04444444 39.1056122,21.3777778 39.1056122,22.2666667 C39.1056122,23.7333333 39.1056122,28.8 44.8316327,28.8 C47.4061224,28.8 48.6045918,28 48.6045918,28 L48.6045918,23.9555556 C48.6045918,23.9111111 43.855102,25.8222222 43.855102,22.2222222 Z" id="Shape"></path>
                    <path d="M113.588265,9.15555556 C109.371429,9.15555556 107.640306,12.2666667 107.640306,12.2666667 C107.640306,12.2666667 106.441837,9.15555556 102.269388,9.15555556 C99.2954082,9.15555556 97.1647959,10.5333333 96.3214286,11.6 L95.9219388,9.46666667 L91.6163265,9.46666667 L91.6163265,28.4444444 L96.3214286,28.4444444 L96.3214286,18.9333333 C96.3214286,16.4888889 97.2979592,14.0444444 100.05,14.0444444 C102.446939,14.0444444 103.423469,15.4666667 103.423469,17.8222222 L103.423469,28.4444444 L108.172959,28.4444444 L108.172959,17.9555556 C108.172959,16.6666667 108.883163,14.0888889 111.812755,14.0888889 C114.742347,14.0888889 115.230612,16.2222222 115.230612,17.7777778 L115.230612,28.4444444 L119.980102,28.4444444 L119.980102,16.2666667 C119.980102,14.4 119.22551,9.15555556 113.588265,9.15555556 Z" id="Shape"></path>
                    <polygon id="Shape" points="0.399489796 0 0.399489796 28.4444444 5.59285714 28.4444444 5.59285714 16.5777778 14.6035714 16.5777778 14.6035714 11.8666667 5.59285714 11.8666667 5.59285714 4.75555556 19.3086735 4.75555556 19.3086735 0"></polygon>
                    <path d="M61.5214286,9.15555556 C58.4586735,9.15555556 56.8163265,10.8444444 56.2392857,11.6 L56.2392857,0 L51.4897959,1.28888889 L51.4897959,28.4444444 L56.2392857,28.4444444 L56.2392857,17.6 C56.2392857,16.3111111 56.7719388,14.0888889 59.6571429,14.0888889 C62.4979592,14.0888889 63.2081633,16.5333333 63.2081633,18.1777778 L63.2081633,28.4444444 L67.9576531,28.4444444 L67.9576531,17.3333333 C67.9576531,12.8888889 65.2943878,9.15555556 61.5214286,9.15555556 Z" id="Shape"></path>
                </g>
                <g id="Group" fill="#4ABEA7" fill-rule="nonzero">
                    <rect id="Rectangle-path" x="0.310714286" y="28.5777778" width="9.45459184" height="9.46666667"></rect>
                    <rect id="Rectangle-path" x="9.76530612" y="19.1111111" width="28.3637755" height="9.46666667"></rect>
                    <rect id="Rectangle-path" x="0.310714286" y="9.64444444" width="18.9091837" height="9.46666667"></rect>
                    <rect id="Rectangle-path" x="19.219898" y="0.177777778" width="18.9091837" height="9.46666667"></rect>
                </g>
            </g>
        </g>
    </g>
</svg>